<svg width="83" height="37" viewBox="0 0 83 37" fill="none" xmlns="http://www.w3.org/2000/svg">
    <path d="M18.34 23.186c4.945-4.148 6.7-7.073 6.7-12.018C25.04 5.478 22.01 0 12.596 0 3.184 0 .152 5.478.152 12.231h6.914c0-3.722 1.116-5.318 5.53-5.318s5.531 1.49 5.531 4.255c0 3.51-2.446 5.424-7.498 9.413L.152 29.248v6.913H24.51V29.25H11.373l6.967-6.063zM30.884 18.294H51.2V11.38H30.884v6.914zm0 10.636H51.2v-6.914H30.884v6.914zM73 14.89l8.934-7.977V0H58.642v6.913h13.614l-7.818 7.445 2.393 5.319h3.617c3.722 0 5.637 1.17 5.637 4.786 0 3.456-1.49 4.786-6.063 4.786-4.52 0-6.062-1.33-6.062-4.786h-6.914c0 6.222 3.83 11.7 12.976 11.7 9.147 0 12.976-5.478 12.976-11.169 0-7.285-5.212-10.636-9.998-10.104z" fill="#263238"/>
</svg>
