<svg width="83" height="9" viewBox="0 0 83 9" fill="none" xmlns="http://www.w3.org/2000/svg">
    <path d="M1.985.519H0v7.725h1.985V5.211h2.56v3.033h1.97V.519h-1.97v3.007h-2.56V.52zM10.125 8.39c1.107 0 1.824-.498 2.19-1.217h.058v1.071h1.97v-5.21c0-1.841-1.512-2.616-3.18-2.616-1.794 0-2.974.885-3.262 2.293l1.922.161c.141-.513.585-.89 1.33-.89.708 0 1.113.367 1.113 1.001v.03c0 .498-.512.564-1.814.694-1.483.141-2.814.654-2.814 2.38 0 1.528 1.058 2.303 2.487 2.303zm.595-1.479c-.639 0-1.097-.307-1.097-.895 0-.604.482-.9 1.214-1.006.453-.065 1.194-.176 1.443-.347v.82c0 .81-.648 1.428-1.56 1.428zM18.858 8.244h3.686c1.873 0 2.917-.79 2.917-2.107 0-1.016-.78-1.821-2.127-1.922 1.073-.19 1.712-.774 1.712-1.61C25.046 1.269 23.9.52 22.052.52h-3.194v7.725zm1.936-1.604V4.955h1.75c.576 0 .927.337.927.885 0 .498-.351.8-.927.8h-1.75zm0-2.943V2.158h1.258c.644 0 1.039.287 1.039.76 0 .488-.376.78-.995.78h-1.302zM30.017 8.395c1.994 0 3.247-1.207 3.345-2.983h-1.96c-.122.825-.649 1.288-1.36 1.288-.971 0-1.6-.84-1.6-2.319 0-1.458.634-2.293 1.6-2.293.76 0 1.247.518 1.36 1.287h1.96c-.088-1.785-1.4-2.957-3.355-2.957-2.272 0-3.677 1.625-3.677 3.993 0 2.35 1.38 3.984 3.687 3.984zM37.968 8.395c1.853 0 3.101-.93 3.394-2.364l-1.921-.13c-.21.588-.747.895-1.439.895-1.038 0-1.697-.71-1.697-1.861V4.93h5.1V4.34c0-2.625-1.54-3.923-3.52-3.923-2.204 0-3.633 1.614-3.633 3.998 0 2.45 1.41 3.979 3.716 3.979zm-1.663-4.793c.044-.88.693-1.585 1.614-1.585.902 0 1.527.664 1.531 1.585h-3.145zM45.665 8.244h2.077V5.503h.776l1.848 2.741h2.467l-2.677-3.893L52.804.52h-2.438l-2.039 2.997h-.585V.52h-2.077v7.725zM55.558.519h-1.984v7.725h1.984V5.211h2.56v3.033h1.97V.519h-1.97v3.007h-2.56V.52zM63.547 5.417V.52h-1.984v7.725h2.062l2.687-4.914v4.914h1.98V.519h-2.048l-2.697 4.898zM74.95.519h-5.13v7.725h2.019v-6.04h3.11V.518zM78.064 5.417V.52h-1.985v7.725h2.063l2.687-4.914v4.914h1.98V.519H80.76l-2.696 4.898z" fill="#263238"/>
</svg>
